<svg version="1.1" id="Layer_1" xmlns="http://www.w3.org/2000/svg" xmlns:xlink="http://www.w3.org/1999/xlink" x="0px" y="0px"
	 width="100%" viewBox="0 0 191 190" enable-background="new 0 0 191 190" xml:space="preserve">
<path fill="#000000" opacity="1.000000" stroke="none" 
	d="
M101.000000,191.000000 
	C67.333336,191.000000 34.166672,191.000000 1.000005,191.000000 
	C1.000003,127.666672 1.000003,64.333344 1.000001,1.000013 
	C64.666656,1.000009 128.333313,1.000009 191.999969,1.000004 
	C191.999985,64.333321 191.999985,127.666634 192.000000,190.999969 
	C161.833328,191.000000 131.666672,191.000000 101.000000,191.000000 
M148.563919,127.956642 
	C148.737961,127.645905 148.912003,127.335175 149.014832,127.019096 
	C149.014832,127.019096 149.046112,127.083321 149.680862,126.874535 
	C151.475861,124.932625 153.270859,122.990715 155.006744,121.007614 
	C155.006744,121.007614 155.028992,121.076126 155.566223,120.956024 
	C155.736420,120.647141 155.906616,120.338257 156.007339,120.007172 
	C156.007339,120.007172 156.050797,120.065750 156.658493,119.891518 
	C157.461227,118.944321 158.263962,117.997116 159.007187,117.007240 
	C159.007187,117.007240 159.031113,117.076447 159.568008,116.955956 
	C159.737335,116.646866 159.906662,116.337784 160.007599,116.007317 
	C160.007599,116.007317 160.047913,116.066551 160.630829,115.912926 
	C161.108795,115.292709 161.586777,114.672501 162.007050,114.005798 
	C162.007050,114.005798 162.031448,114.075745 162.567139,113.954094 
	C162.736801,113.645599 162.906464,113.337105 162.999100,113.016533 
	C162.999100,113.016533 163.067917,113.053833 163.586639,112.944664 
	C163.752350,112.646507 163.918060,112.348351 164.021179,112.012909 
	C164.021179,112.012909 164.028534,112.085388 164.566406,111.957268 
	C164.739410,111.647614 164.912399,111.337959 165.014328,111.017632 
	C165.014328,111.017632 165.044830,111.082710 165.652420,110.896729 
	C166.462616,109.945381 167.272812,108.994041 168.017334,108.015068 
	C168.017334,108.015068 168.026398,108.085739 168.563538,107.954475 
	C168.737259,107.644974 168.910965,107.335472 169.013275,107.017242 
	C169.013275,107.017242 169.048080,107.080193 169.666016,106.866814 
	C169.823669,106.244377 169.981323,105.621941 170.766251,104.722549 
	C175.868668,97.841400 180.609161,90.783974 182.228683,81.238625 
	C183.393295,73.682556 184.165482,66.148193 180.998444,58.056488 
	C179.342651,54.325348 177.686844,50.594212 175.984528,46.426960 
	C175.984528,46.426960 175.831161,46.016068 175.909424,45.479595 
	C175.616623,45.289406 175.323822,45.099216 175.017700,44.980137 
	C175.017700,44.980137 175.086517,44.957855 175.000671,44.257614 
	C173.673477,42.453060 172.346298,40.648502 170.908875,38.404690 
	C170.733963,38.120110 170.479507,37.980129 169.858749,37.356411 
	C166.587036,34.875141 163.315308,32.393875 160.012451,29.982410 
	C160.012451,29.982410 160.083542,29.954315 159.831192,29.330030 
	C158.870667,28.946314 157.910126,28.562599 156.308884,27.809509 
	C156.001251,27.258535 155.825287,26.397373 155.366470,26.202602 
	C147.000961,22.651432 138.595673,19.186132 129.196075,20.024235 
	C125.934731,20.315025 122.595375,20.345600 119.447227,21.124144 
	C116.059227,21.962006 112.706955,23.253963 109.602585,24.857801 
	C104.733780,27.373222 100.086082,30.316633 94.661095,32.989346 
	C94.435951,33.035503 94.210808,33.081661 93.338417,32.861012 
	C79.632248,21.093330 63.521248,17.100071 46.372330,21.266502 
	C29.284580,25.418076 16.351334,36.044609 10.152820,53.032661 
	C4.303488,69.063713 4.963696,85.094292 15.730677,98.882225 
	C23.595800,108.954109 33.164001,117.696060 42.040192,127.657127 
	C42.348373,128.134933 42.656551,128.612732 42.965374,129.017441 
	C42.965374,129.017441 42.894318,129.034561 43.029728,129.573364 
	C43.341434,129.744110 43.653145,129.914841 43.983585,130.016220 
	C43.983585,130.016220 43.914803,130.037003 44.033745,130.575943 
	C44.343296,130.746017 44.652847,130.916077 44.983433,131.016693 
	C44.983433,131.016693 44.914062,131.038010 45.035423,131.575684 
	C45.344513,131.746170 45.653599,131.916672 45.982674,132.017609 
	C45.982674,132.017609 45.912975,132.037140 46.036060,132.574738 
	C46.345230,132.745972 46.654404,132.917206 46.979328,133.014191 
	C46.979328,133.014191 46.913776,133.052460 47.075203,133.626938 
	C47.682396,134.117264 48.289585,134.607590 49.108177,135.686447 
	C50.037060,136.494171 50.965942,137.301895 52.036526,138.600525 
	C52.321777,138.768478 52.607029,138.936447 53.043468,139.593857 
	C53.327606,139.762955 53.611740,139.932037 54.045834,140.610870 
	C54.349834,140.754272 54.653831,140.897675 55.124676,141.531509 
	C55.418633,141.685272 55.712589,141.839050 56.131958,142.664520 
	C61.757992,147.934357 67.363548,153.226425 73.033249,158.448837 
	C73.837593,159.189743 74.953896,159.591965 76.187164,160.756714 
	C78.087921,162.850449 79.988678,164.944183 82.191780,167.641052 
	C86.254990,172.064209 90.318199,176.487350 94.016129,180.512848 
	C98.420303,176.377731 101.766533,173.235916 105.068321,170.014999 
	C105.068321,170.014999 105.061195,170.105423 105.783890,170.076447 
	C107.724579,168.004395 109.625832,165.893677 111.613358,163.867584 
	C117.547348,157.818451 123.515160,151.802490 129.688095,145.682693 
	C129.688095,145.682693 129.779083,145.464401 130.245773,145.120331 
	C131.157791,144.088272 132.069809,143.056213 133.578064,141.817780 
	C134.412476,140.892410 135.246902,139.967041 136.692490,138.788559 
	C137.820053,137.216660 138.947617,135.644760 140.680435,133.805557 
	C141.780457,133.273026 142.880478,132.740494 144.521698,131.987640 
	C144.709869,131.664215 144.898041,131.340790 145.014725,131.017212 
	C145.014725,131.017212 145.024841,131.087997 145.561188,130.953934 
	C145.735962,130.644852 145.910736,130.335754 146.016006,130.015930 
	C146.016006,130.015930 146.026535,130.085480 146.563934,129.952209 
	C146.738647,129.642288 146.913361,129.332352 147.016647,129.016571 
	C147.016647,129.016571 147.021545,129.088058 147.562164,128.956619 
	C147.737122,128.645294 147.912079,128.333969 148.016190,128.016800 
	C148.016190,128.016800 148.024521,128.087402 148.563919,127.956642 
z"/>
<path fill="#6CB6E4" opacity="1.000000" stroke="none" 
	d="
M41.973030,127.030846 
	C33.164001,117.696060 23.595800,108.954109 15.730677,98.882225 
	C4.963696,85.094292 4.303488,69.063713 10.152820,53.032661 
	C16.351334,36.044609 29.284580,25.418076 46.372330,21.266502 
	C63.521248,17.100071 79.632248,21.093330 93.648911,33.352402 
	C93.342171,35.359379 93.061005,37.163013 92.050713,38.341713 
	C87.141815,44.068939 83.495483,50.370564 81.937782,58.010674 
	C81.420212,58.382614 81.152657,58.630116 80.499435,58.886200 
	C79.140411,59.086288 78.115051,59.141178 77.201271,59.489128 
	C49.084625,70.195290 36.222168,101.728981 48.636356,129.340744 
	C49.119129,130.414536 49.043396,131.739441 48.840446,132.961243 
	C47.939922,133.000946 47.426849,133.026703 46.913776,133.052460 
	C46.913776,133.052460 46.979328,133.014191 46.964401,132.747238 
	C46.603977,132.332581 46.258476,132.184860 45.912975,132.037140 
	C45.912975,132.037140 45.982674,132.017609 45.968224,131.747192 
	C45.607204,131.330536 45.260632,131.184265 44.914062,131.038010 
	C44.914062,131.038010 44.983433,131.016693 44.969719,130.746338 
	C44.608936,130.329666 44.261868,130.183334 43.914803,130.037003 
	C43.914803,130.037003 43.983585,130.016220 43.964077,129.745605 
	C43.594486,129.328186 43.244400,129.181381 42.894318,129.034561 
	C42.894318,129.034561 42.965374,129.017441 42.967751,128.748550 
	C42.637760,127.996727 42.305393,127.513786 41.973030,127.030846 
z"/>
<path fill="#EEDB34" opacity="1.000000" stroke="none" 
	d="
M95.344742,33.078785 
	C100.086082,30.316633 104.733780,27.373222 109.602585,24.857801 
	C112.706955,23.253963 116.059227,21.962006 119.447227,21.124144 
	C122.595375,20.345600 125.934731,20.315025 129.196075,20.024235 
	C138.595673,19.186132 147.000961,22.651432 155.366470,26.202602 
	C155.825287,26.397373 156.001251,27.258535 156.726288,28.318237 
	C158.123657,29.202747 159.103592,29.578531 160.083542,29.954315 
	C160.083542,29.954315 160.012451,29.982410 160.055740,30.301609 
	C162.549362,34.301254 164.571167,38.566330 170.145508,37.984745 
	C170.479507,37.980129 170.733963,38.120110 170.952545,39.018021 
	C170.916168,42.515320 171.888840,44.590893 175.086517,44.957855 
	C175.086517,44.957855 175.017700,44.980137 175.104706,45.163967 
	C175.343719,45.629047 175.556870,45.851807 175.831161,46.016068 
	C175.831161,46.016068 175.984528,46.426960 175.997040,47.063026 
	C176.139633,49.011814 175.851013,50.578442 176.467987,51.595928 
	C180.392914,58.068756 179.898682,65.215797 180.055283,72.308029 
	C180.112152,74.883675 180.646805,77.448769 180.968414,80.349274 
	C180.945786,81.120102 180.918213,81.560326 180.635712,82.228989 
	C176.003418,92.696869 171.599686,102.909882 161.783295,109.431839 
	C161.550385,109.586586 162.224945,111.107185 162.582062,112.279922 
	C162.814560,112.730690 162.941238,112.892258 163.067917,113.053833 
	C163.067917,113.053833 162.999100,113.016533 162.729599,113.023003 
	C162.317215,113.378227 162.174332,113.726990 162.031448,114.075745 
	C162.031448,114.075745 162.007050,114.005798 161.711868,113.907448 
	C160.962128,113.885796 160.507584,113.962502 159.998001,113.916786 
	C159.866730,113.750244 159.790466,113.706131 159.714218,113.662018 
	C159.822617,113.792191 159.931015,113.922371 159.981476,114.391068 
	C159.964981,115.175247 160.006454,115.620895 160.047913,116.066551 
	C160.047913,116.066551 160.007599,116.007317 159.734116,116.018105 
	C159.317459,116.378075 159.174286,116.727264 159.031113,117.076447 
	C159.031113,117.076447 159.007187,117.007240 158.715485,116.924362 
	C157.613098,117.212418 156.802414,117.583351 155.871902,117.775490 
	C155.476334,117.543152 155.200562,117.489616 154.924805,117.436081 
	C155.265778,117.626808 155.606750,117.817543 155.903931,118.356224 
	C155.923691,119.158035 155.987244,119.611893 156.050797,120.065750 
	C156.050797,120.065750 156.007339,120.007172 155.735214,120.018257 
	C155.318390,120.378265 155.173691,120.727196 155.028992,121.076126 
	C155.028992,121.076126 155.006744,121.007614 154.704956,120.918930 
	C153.941498,120.881615 153.479843,120.932991 152.804749,120.779633 
	C151.326691,121.454010 150.169083,122.699303 148.767242,123.109100 
	C147.369064,123.517822 145.726074,123.089134 144.197235,122.637718 
	C151.547607,95.931030 138.975174,67.241570 109.870590,58.931835 
	C109.653419,58.892941 109.215584,58.947765 109.006409,58.739479 
	C108.515846,58.255436 108.234451,57.979675 107.965485,57.338413 
	C104.508896,50.409058 101.040108,43.845089 97.570702,37.281452 
	C96.829887,35.879944 96.086792,34.479641 95.344742,33.078785 
z"/>
<path fill="#D572AA" opacity="1.000000" stroke="none" 
	d="
M81.889435,167.037918 
	C79.988678,164.944183 78.087921,162.850449 76.032211,160.102066 
	C71.098961,154.148987 66.320663,148.850555 61.632809,143.652390 
	C64.704567,139.826691 67.849396,135.909973 70.996948,131.996643 
	C70.999664,132.000000 70.994392,131.994385 71.362259,131.989868 
	C72.479378,130.980789 73.228630,129.976227 74.092720,128.760956 
	C74.405602,128.287247 74.657967,128.095901 75.312561,127.945885 
	C78.605507,125.528229 81.764069,123.353348 84.422943,120.681259 
	C86.297218,118.797684 87.492996,116.238968 89.105797,113.770065 
	C89.419968,113.295235 89.675552,113.107674 90.342667,112.959564 
	C92.480576,111.276016 94.262489,109.628662 96.299408,108.189789 
	C107.686089,119.646378 118.817749,130.894485 129.808075,142.467560 
	C129.704208,143.683151 129.741653,144.573776 129.779083,145.464401 
	C129.779083,145.464401 129.688095,145.682693 129.243286,145.546478 
	C127.912163,145.737137 126.790199,145.824142 126.175728,146.427750 
	C119.564796,152.921814 112.981750,159.446930 106.540588,166.108124 
	C105.636467,167.043137 105.534477,168.753799 105.061195,170.105423 
	C105.061195,170.105423 105.068321,170.014999 104.719803,170.029327 
	C102.380280,171.396408 100.089317,172.463196 98.465759,174.166245 
	C95.759056,177.005463 94.332634,177.140610 91.600334,173.733826 
	C89.243889,170.795670 85.191849,169.217392 81.889435,167.037918 
z"/>
<path fill="#ED7543" opacity="1.000000" stroke="none" 
	d="
M129.949402,142.142593 
	C118.817749,130.894485 107.686089,119.646378 96.306519,107.941505 
	C96.058617,107.484741 95.995300,106.991608 96.168877,106.705597 
	C103.566971,98.313988 108.324821,88.890472 109.541473,78.152679 
	C110.256241,71.844337 109.377548,65.355446 109.215584,58.947765 
	C109.215584,58.947765 109.653419,58.892941 110.002769,59.246098 
	C111.957512,60.934483 113.406441,62.558403 115.206673,63.534153 
	C117.627945,64.846504 120.645981,65.202904 122.837120,66.768440 
	C130.370087,72.150665 136.242508,79.412521 139.777252,87.689774 
	C144.217148,98.086601 146.133469,109.257378 142.340851,120.630287 
	C140.989151,124.683647 140.123108,128.898972 139.033661,133.014832 
	C139.031952,132.989304 139.062195,133.031433 138.707367,133.063171 
	C135.939835,134.444839 134.033142,135.988022 136.081329,139.041672 
	C135.246902,139.967041 134.412476,140.892410 132.901627,141.929962 
	C131.466599,142.075638 130.707993,142.109116 129.949402,142.142593 
z"/>
<path fill="#88B758" opacity="1.000000" stroke="none" 
	d="
M95.002914,33.034065 
	C96.086792,34.479641 96.829887,35.879944 97.570702,37.281452 
	C101.040108,43.845089 104.508896,50.409058 107.558731,57.417439 
	C98.822304,57.870060 90.505051,57.878151 82.187798,57.886242 
	C83.495483,50.370564 87.141815,44.068939 92.050713,38.341713 
	C93.061005,37.163013 93.342171,35.359379 93.972542,33.485806 
	C94.210808,33.081661 94.435951,33.035503 95.002914,33.034065 
z"/>
<path fill="#BE7DAF" opacity="1.000000" stroke="none" 
	d="
M70.994232,131.993271 
	C67.849396,135.909973 64.704567,139.826691 61.632809,143.652390 
	C66.320663,148.850555 71.098961,154.148987 75.901535,159.799179 
	C74.953896,159.591965 73.837593,159.189743 73.033249,158.448837 
	C67.363548,153.226425 61.757992,147.934357 56.046120,142.327194 
	C55.960278,141.989868 55.935722,141.950577 56.281883,141.990631 
	C58.129845,141.567444 59.921833,141.475479 61.078911,140.571152 
	C64.518013,137.883316 67.707306,134.875839 70.994232,131.993271 
z"/>
<path fill="#C584A9" opacity="1.000000" stroke="none" 
	d="
M105.422546,170.090942 
	C105.534477,168.753799 105.636467,167.043137 106.540588,166.108124 
	C112.981750,159.446930 119.564796,152.921814 126.175728,146.427750 
	C126.790199,145.824142 127.912163,145.737137 129.134125,145.591919 
	C123.515160,151.802490 117.547348,157.818451 111.613358,163.867584 
	C109.625832,165.893677 107.724579,168.004395 105.422546,170.090942 
z"/>
<path fill="#E7DB4D" opacity="1.000000" stroke="none" 
	d="
M162.476242,111.990723 
	C162.224945,111.107185 161.550385,109.586586 161.783295,109.431839 
	C171.599686,102.909882 176.003418,92.696869 180.870560,82.227020 
	C181.360352,81.996635 181.827957,82.011269 181.827957,82.011269 
	C180.609161,90.783974 175.868668,97.841400 170.159027,105.009048 
	C169.383911,105.890427 169.216003,106.485313 169.048080,107.080193 
	C169.048080,107.080193 169.013275,107.017242 168.761108,107.058472 
	C168.348083,107.428375 168.187241,107.757057 168.026398,108.085739 
	C168.026398,108.085739 168.017334,108.015068 167.693771,107.999374 
	C166.595093,109.016693 165.819962,110.049706 165.044830,111.082710 
	C165.044830,111.082710 165.014328,111.017632 164.759933,111.055420 
	C164.346542,111.423927 164.187531,111.754662 164.028534,112.085388 
	C164.028534,112.085388 164.021179,112.012909 163.652420,111.967148 
	C163.014511,111.944496 162.745377,111.967613 162.476242,111.990723 
z"/>
<path fill="#BA7A9E" opacity="1.000000" stroke="none" 
	d="
M82.040604,167.339478 
	C85.191849,169.217392 89.243889,170.795670 91.600334,173.733826 
	C94.332634,177.140610 95.759056,177.005463 98.465759,174.166245 
	C100.089317,172.463196 102.380280,171.396408 104.742020,170.068878 
	C101.766533,173.235916 98.420303,176.377731 94.016129,180.512848 
	C90.318199,176.487350 86.254990,172.064209 82.040604,167.339478 
z"/>
<path fill="#E7DB4D" opacity="1.000000" stroke="none" 
	d="
M180.963470,80.018677 
	C180.646805,77.448769 180.112152,74.883675 180.055283,72.308029 
	C179.898682,65.215797 180.392914,58.068756 176.467987,51.595928 
	C175.851013,50.578442 176.139633,49.011814 176.020294,47.281082 
	C177.686844,50.594212 179.342651,54.325348 180.977936,58.895279 
	C181.162216,61.516689 181.566940,63.303051 181.533661,65.081215 
	C181.440414,70.062180 181.166245,75.039764 180.963470,80.018677 
z"/>
<path fill="#EBD652" opacity="1.000000" stroke="none" 
	d="
M144.190414,123.027588 
	C145.726074,123.089134 147.369064,123.517822 148.767242,123.109100 
	C150.169083,122.699303 151.326691,121.454010 152.652374,121.080421 
	C151.490982,123.418396 150.268539,125.250862 149.046112,127.083321 
	C149.046112,127.083321 149.014832,127.019096 148.768463,127.068932 
	C148.356247,127.441643 148.190384,127.764526 148.024521,128.087402 
	C148.024521,128.087402 148.016190,128.016800 147.772568,128.071808 
	C147.359802,128.447220 147.190674,128.767639 147.021545,129.088058 
	C147.021545,129.088058 147.016647,129.016571 146.770676,129.070953 
	C146.358643,129.445389 146.192596,129.765427 146.026535,130.085480 
	C146.026535,130.085480 146.016006,130.015930 145.766220,130.061478 
	C145.352570,130.434021 145.188705,130.761017 145.024841,131.087997 
	C145.024841,131.087997 145.014725,131.017212 144.760864,131.090179 
	C144.331512,131.511429 144.156006,131.859695 143.980499,132.207977 
	C142.880478,132.740494 141.780457,133.273026 140.170517,133.804047 
	C139.380798,133.607834 139.181335,133.350800 139.062195,133.031433 
	C139.062195,133.031433 139.031952,132.989304 139.333801,132.840088 
	C141.153915,129.469788 142.672165,126.248680 144.190414,123.027588 
z"/>
<path fill="#E7DB4D" opacity="1.000000" stroke="none" 
	d="
M170.002136,37.670578 
	C164.571167,38.566330 162.549362,34.301254 160.071320,30.266706 
	C163.315308,32.393875 166.587036,34.875141 170.002136,37.670578 
z"/>
<path fill="#F7F09E" opacity="1.000000" stroke="none" 
	d="
M180.968414,80.349274 
	C181.166245,75.039764 181.440414,70.062180 181.533661,65.081215 
	C181.566940,63.303051 181.162216,61.516689 180.973358,59.283146 
	C184.165482,66.148193 183.393295,73.682556 182.028320,81.624947 
	C181.827957,82.011269 181.360352,81.996635 181.125504,81.998596 
	C180.918213,81.560326 180.945786,81.120102 180.968414,80.349274 
z"/>
<path fill="#E18233" opacity="1.000000" stroke="none" 
	d="
M138.707367,133.063171 
	C139.181335,133.350800 139.380798,133.607834 139.867889,133.937683 
	C138.947617,135.644760 137.820053,137.216660 136.386902,138.915115 
	C134.033142,135.988022 135.939835,134.444839 138.707367,133.063171 
z"/>
<path fill="#E7DB4D" opacity="1.000000" stroke="none" 
	d="
M175.043594,44.607735 
	C171.888840,44.590893 170.916168,42.515320 171.007660,39.237648 
	C172.346298,40.648502 173.673477,42.453060 175.043594,44.607735 
z"/>
<path fill="#F9F5AA" opacity="1.000000" stroke="none" 
	d="
M149.363495,126.978928 
	C150.268539,125.250862 151.490982,123.418396 152.865799,121.285149 
	C153.479843,120.932991 153.941498,120.881615 154.734497,120.939514 
	C153.270859,122.990715 151.475861,124.932625 149.363495,126.978928 
z"/>
<path fill="#C584A9" opacity="1.000000" stroke="none" 
	d="
M129.808075,142.467560 
	C130.707993,142.109116 131.466599,142.075638 132.603516,142.033142 
	C132.069809,143.056213 131.157791,144.088272 130.012421,145.292358 
	C129.741653,144.573776 129.704208,143.683151 129.808075,142.467560 
z"/>
<path fill="#CFE5F6" opacity="1.000000" stroke="none" 
	d="
M51.894829,138.109604 
	C50.965942,137.301895 50.037060,136.494171 49.020218,135.376038 
	C48.932262,135.065643 48.964542,135.030167 49.313297,134.839417 
	C50.431480,135.774246 51.200912,136.899826 51.953564,138.048340 
	C51.936787,138.071274 51.894833,138.109604 51.894829,138.109604 
z"/>
<path fill="#E7DB4D" opacity="1.000000" stroke="none" 
	d="
M159.957367,29.642172 
	C159.103592,29.578531 158.123657,29.202747 157.046661,28.502926 
	C157.910126,28.562599 158.870667,28.946314 159.957367,29.642172 
z"/>
<path fill="#F9F5AA" opacity="1.000000" stroke="none" 
	d="
M156.354645,119.978638 
	C155.987244,119.611893 155.923691,119.158035 155.931366,118.355972 
	C156.002594,118.007767 155.991714,117.954292 155.991714,117.954292 
	C156.802414,117.583351 157.613098,117.212418 158.745239,116.945694 
	C158.263962,117.997116 157.461227,118.944321 156.354645,119.978638 
z"/>
<path fill="#F9F5AA" opacity="1.000000" stroke="none" 
	d="
M165.348633,110.989716 
	C165.819962,110.049706 166.595093,109.016693 167.726608,108.013191 
	C167.272812,108.994041 166.462616,109.945381 165.348633,110.989716 
z"/>
<path fill="#F9F5AA" opacity="1.000000" stroke="none" 
	d="
M160.339371,115.989738 
	C160.006454,115.620895 159.964981,115.175247 159.962479,114.365326 
	C160.001434,114.001068 160.053024,114.039207 160.053024,114.039207 
	C160.507584,113.962502 160.962128,113.885796 161.740723,113.930695 
	C161.586777,114.672501 161.108795,115.292709 160.339371,115.989738 
z"/>
<path fill="#CFE5F6" opacity="1.000000" stroke="none" 
	d="
M46.994492,133.339691 
	C47.426849,133.026703 47.939922,133.000946 48.912140,133.331573 
	C49.235699,134.135376 49.100121,134.582779 48.964539,135.030167 
	C48.964542,135.030167 48.932262,135.065643 48.914520,135.081787 
	C48.289585,134.607590 47.682396,134.117264 46.994492,133.339691 
z"/>
<path fill="#F9F5AA" opacity="1.000000" stroke="none" 
	d="
M169.357056,106.973503 
	C169.216003,106.485313 169.383911,105.890427 169.845398,105.147522 
	C169.981323,105.621941 169.823669,106.244377 169.357056,106.973503 
z"/>
<path fill="#CFE5F6" opacity="1.000000" stroke="none" 
	d="
M42.006607,127.343987 
	C42.305393,127.513786 42.637760,127.996727 42.967426,128.785095 
	C42.656551,128.612732 42.348373,128.134933 42.006607,127.343987 
z"/>
<path fill="#CFE5F6" opacity="1.000000" stroke="none" 
	d="
M44.974743,131.306854 
	C45.260632,131.184265 45.607204,131.330536 45.958229,131.781982 
	C45.653599,131.916672 45.344513,131.746170 44.974743,131.306854 
z"/>
<path fill="#F9F5AA" opacity="1.000000" stroke="none" 
	d="
M168.294968,108.020111 
	C168.187241,107.757057 168.348083,107.428375 168.796814,107.062836 
	C168.910965,107.335472 168.737259,107.644974 168.294968,108.020111 
z"/>
<path fill="#E7DB4D" opacity="1.000000" stroke="none" 
	d="
M175.870300,45.747833 
	C175.556870,45.851807 175.343719,45.629047 175.111359,45.128410 
	C175.323822,45.099216 175.616623,45.289406 175.870300,45.747833 
z"/>
<path fill="#CFE5F6" opacity="1.000000" stroke="none" 
	d="
M55.983414,141.991333 
	C55.712589,141.839050 55.418633,141.685272 55.059975,141.268600 
	C54.995277,141.005692 54.965530,141.024765 55.207233,141.064667 
	C55.672203,141.351456 55.834465,141.633453 55.935722,141.950577 
	C55.935722,141.950577 55.960278,141.989868 55.983414,141.991333 
z"/>
<path fill="#CFE5F6" opacity="1.000000" stroke="none" 
	d="
M54.976555,141.023376 
	C54.653831,140.897675 54.349834,140.754272 53.989105,140.337585 
	C53.932377,140.064285 53.971046,140.029709 54.301224,139.935928 
	C54.742779,140.236359 54.854153,140.630554 54.965530,141.024765 
	C54.965530,141.024765 54.995277,141.005692 54.976555,141.023376 
z"/>
<path fill="#CFE5F6" opacity="1.000000" stroke="none" 
	d="
M53.914127,140.082703 
	C53.611740,139.932037 53.327606,139.762955 52.987602,139.329987 
	C52.931732,139.066101 52.971333,139.027939 53.312103,138.931885 
	C53.758930,139.233780 53.864990,139.631744 53.971046,140.029709 
	C53.971046,140.029709 53.932377,140.064285 53.914127,140.082703 
z"/>
<path fill="#CFE5F6" opacity="1.000000" stroke="none" 
	d="
M52.912006,139.085266 
	C52.607029,138.936447 52.321777,138.768478 51.965679,138.355072 
	C51.894833,138.109604 51.936787,138.071274 52.301491,137.954865 
	C52.767910,138.234940 52.869621,138.631439 52.971333,139.027939 
	C52.971333,139.027939 52.931732,139.066101 52.912006,139.085266 
z"/>
<path fill="#F9F5AA" opacity="1.000000" stroke="none" 
	d="
M164.297470,112.021332 
	C164.187531,111.754662 164.346542,111.423927 164.795471,111.060753 
	C164.912399,111.337959 164.739410,111.647614 164.297470,112.021332 
z"/>
<path fill="#F9F5AA" opacity="1.000000" stroke="none" 
	d="
M162.582062,112.279922 
	C162.745377,111.967613 163.014511,111.944496 163.683716,111.985786 
	C163.918060,112.348351 163.752350,112.646507 163.327271,112.999252 
	C162.941238,112.892258 162.814560,112.730690 162.582062,112.279922 
z"/>
<path fill="#CFE5F6" opacity="1.000000" stroke="none" 
	d="
M45.974518,132.305939 
	C46.258476,132.184860 46.603977,132.332581 46.956528,132.784363 
	C46.654404,132.917206 46.345230,132.745972 45.974518,132.305939 
z"/>
<path fill="#F9F5AA" opacity="1.000000" stroke="none" 
	d="
M144.251099,132.097809 
	C144.156006,131.859695 144.331512,131.511429 144.796616,131.090256 
	C144.898041,131.340790 144.709869,131.664215 144.251099,132.097809 
z"/>
<path fill="#F9F5AA" opacity="1.000000" stroke="none" 
	d="
M145.293015,131.020966 
	C145.188705,130.761017 145.352570,130.434021 145.800964,130.066849 
	C145.910736,130.335754 145.735962,130.644852 145.293015,131.020966 
z"/>
<path fill="#CFE5F6" opacity="1.000000" stroke="none" 
	d="
M43.974274,130.306473 
	C44.261868,130.183334 44.608936,130.329666 44.959198,130.781067 
	C44.652847,130.916077 44.343296,130.746017 43.974274,130.306473 
z"/>
<path fill="#F9F5AA" opacity="1.000000" stroke="none" 
	d="
M146.295227,130.018845 
	C146.192596,129.765427 146.358643,129.445389 146.806381,129.073883 
	C146.913361,129.332352 146.738647,129.642288 146.295227,130.018845 
z"/>
<path fill="#CFE5F6" opacity="1.000000" stroke="none" 
	d="
M42.962021,129.303955 
	C43.244400,129.181381 43.594486,129.328186 43.954712,129.780304 
	C43.653145,129.914841 43.341434,129.744110 42.962021,129.303955 
z"/>
<path fill="#F9F5AA" opacity="1.000000" stroke="none" 
	d="
M147.291855,129.022339 
	C147.190674,128.767639 147.359802,128.447220 147.807983,128.074722 
	C147.912079,128.333969 147.737122,128.645294 147.291855,129.022339 
z"/>
<path fill="#F9F5AA" opacity="1.000000" stroke="none" 
	d="
M148.294220,128.022018 
	C148.190384,127.764526 148.356247,127.441643 148.804077,127.071609 
	C148.912003,127.335175 148.737961,127.645905 148.294220,128.022018 
z"/>
<path fill="#F9F5AA" opacity="1.000000" stroke="none" 
	d="
M162.299286,114.014923 
	C162.174332,113.726990 162.317215,113.378227 162.768112,113.029037 
	C162.906464,113.337105 162.736801,113.645599 162.299286,114.014923 
z"/>
<path fill="#F9F5AA" opacity="1.000000" stroke="none" 
	d="
M155.297607,121.016075 
	C155.173691,120.727196 155.318390,120.378265 155.769958,120.029358 
	C155.906616,120.338257 155.736420,120.647141 155.297607,121.016075 
z"/>
<path fill="#F9F5AA" opacity="1.000000" stroke="none" 
	d="
M159.299561,117.016205 
	C159.174286,116.727264 159.317459,116.378075 159.768311,116.028793 
	C159.906662,116.337784 159.737335,116.646866 159.299561,117.016205 
z"/>
<path fill="#656AAE" opacity="1.000000" stroke="none" 
	d="
M53.312103,138.931885 
	C52.869621,138.631439 52.767910,138.234940 52.318268,137.931915 
	C51.200912,136.899826 50.431480,135.774246 49.313293,134.839417 
	C49.100121,134.582779 49.235699,134.135376 49.299591,133.317657 
	C49.043396,131.739441 49.119129,130.414536 48.636356,129.340744 
	C36.222168,101.728981 49.084625,70.195290 77.201271,59.489128 
	C78.115051,59.141178 79.140411,59.086288 80.547310,59.339695 
	C80.955421,61.274471 81.180595,62.820004 80.864067,64.245224 
	C78.723877,73.881912 80.716637,83.028801 84.557159,91.752090 
	C86.923531,97.127029 90.261696,102.074127 93.091095,107.532791 
	C92.007980,109.566757 90.997314,111.281258 89.986656,112.995758 
	C89.675552,113.107674 89.419968,113.295235 88.793747,113.900925 
	C83.899956,118.820999 79.432312,123.398598 74.964661,127.976196 
	C74.657967,128.095901 74.405602,128.287247 73.810982,128.890472 
	C72.607735,130.151917 71.801064,131.073151 70.994385,131.994385 
	C70.994392,131.994385 70.999664,132.000000 70.996948,131.996643 
	C67.707306,134.875839 64.518013,137.883316 61.078911,140.571152 
	C59.921833,141.475479 58.129845,141.567444 56.281883,141.990631 
	C55.834465,141.633453 55.672203,141.351456 55.207230,141.064667 
	C54.854153,140.630554 54.742779,140.236359 54.301224,139.935928 
	C53.864990,139.631744 53.758930,139.233780 53.312103,138.931885 
z"/>
<path fill="#843C8A" opacity="1.000000" stroke="none" 
	d="
M93.163544,107.213318 
	C90.261696,102.074127 86.923531,97.127029 84.557159,91.752090 
	C80.716637,83.028801 78.723877,73.881912 80.864067,64.245224 
	C81.180595,62.820004 80.955421,61.274471 80.932983,59.331108 
	C81.152657,58.630116 81.420212,58.382614 81.937782,58.010674 
	C90.505051,57.878151 98.822304,57.870060 107.546310,57.782944 
	C108.234451,57.979675 108.515846,58.255436 109.006409,58.739479 
	C109.377548,65.355446 110.256241,71.844337 109.541473,78.152679 
	C108.324821,88.890472 103.566971,98.313988 95.813568,106.737625 
	C94.577644,107.108208 93.870590,107.160767 93.163544,107.213318 
z"/>
<path fill="#E18233" opacity="1.000000" stroke="none" 
	d="
M144.197235,122.637711 
	C142.672165,126.248680 141.153915,129.469788 139.335526,132.865631 
	C140.123108,128.898972 140.989151,124.683647 142.340851,120.630287 
	C146.133469,109.257378 144.217148,98.086601 139.777252,87.689774 
	C136.242508,79.412521 130.370087,72.150665 122.837120,66.768440 
	C120.645981,65.202904 117.627945,64.846504 115.206673,63.534153 
	C113.406441,62.558403 111.957512,60.934483 110.219940,59.284992 
	C138.975174,67.241570 151.547607,95.931030 144.197235,122.637711 
z"/>
<path fill="#E7DB4D" opacity="1.000000" stroke="none" 
	d="
M155.975159,118.008018 
	C155.606750,117.817543 155.265778,117.626808 154.924805,117.436081 
	C155.200562,117.489616 155.476334,117.543152 155.871902,117.775490 
	C155.991714,117.954292 156.002594,118.007767 155.975159,118.008018 
z"/>
<path fill="#E7DB4D" opacity="1.000000" stroke="none" 
	d="
M160.020416,114.026810 
	C159.931015,113.922371 159.822617,113.792191 159.714218,113.662018 
	C159.790466,113.706131 159.866730,113.750244 159.998001,113.916786 
	C160.053024,114.039207 160.001434,114.001068 160.020416,114.026810 
z"/>
<path fill="#BE7DAF" opacity="1.000000" stroke="none" 
	d="
M75.312569,127.945892 
	C79.432312,123.398598 83.899956,118.820999 88.679657,114.112549 
	C87.492996,116.238968 86.297218,118.797684 84.422943,120.681259 
	C81.764069,123.353348 78.605507,125.528229 75.312569,127.945892 
z"/>
<path fill="#BE7DAF" opacity="1.000000" stroke="none" 
	d="
M93.091095,107.532791 
	C93.870590,107.160767 94.577644,107.108208 95.639999,107.023636 
	C95.995300,106.991608 96.058617,107.484741 96.051506,107.733032 
	C94.262489,109.628662 92.480576,111.276016 90.342667,112.959564 
	C90.997314,111.281258 92.007980,109.566757 93.091095,107.532791 
z"/>
<path fill="#BE7DAF" opacity="1.000000" stroke="none" 
	d="
M71.362259,131.989868 
	C71.801064,131.073151 72.607735,130.151917 73.696144,129.101166 
	C73.228630,129.976227 72.479378,130.980789 71.362259,131.989868 
z"/>
</svg>